<?xml version="1.0" encoding="UTF-8" standalone="no"?>
<!-- Created with Inkscape (http://www.inkscape.org/) -->

<svg
   xmlns:dc="http://purl.org/dc/elements/1.1/"
   xmlns:cc="http://creativecommons.org/ns#"
   xmlns:rdf="http://www.w3.org/1999/02/22-rdf-syntax-ns#"
   xmlns:svg="http://www.w3.org/2000/svg"
   xmlns="http://www.w3.org/2000/svg"
   xmlns:sodipodi="http://sodipodi.sourceforge.net/DTD/sodipodi-0.dtd"
   xmlns:inkscape="http://www.inkscape.org/namespaces/inkscape"
   width="155mm"
   height="159mm"
   viewBox="0 0 155 159"
   version="1.1"
   id="svg181"
   inkscape:version="0.92.4 (5da689c313, 2019-01-14)"
   sodipodi:docname="luispuerto.svg">
  <defs
     id="defs175" />
  <sodipodi:namedview
     id="base"
     pagecolor="#ffffff"
     bordercolor="#666666"
     borderopacity="1.0"
     inkscape:pageopacity="0.0"
     inkscape:pageshadow="2"
     inkscape:zoom="0.35"
     inkscape:cx="400"
     inkscape:cy="560"
     inkscape:document-units="mm"
     inkscape:current-layer="layer1"
     showgrid="false"
     inkscape:window-width="1366"
     inkscape:window-height="706"
     inkscape:window-x="-8"
     inkscape:window-y="-8"
     inkscape:window-maximized="1"
     inkscape:snap-text-baseline="true" />
  <metadata
     id="metadata178">
    <rdf:RDF>
      <cc:Work
         rdf:about="">
        <dc:format>image/svg+xml</dc:format>
        <dc:type
           rdf:resource="http://purl.org/dc/dcmitype/StillImage" />
        <dc:title></dc:title>
      </cc:Work>
    </rdf:RDF>
  </metadata>
  <g
     inkscape:label="Layer 1"
     inkscape:groupmode="layer"
     id="layer1"
     transform="translate(0,-138)">
    <path
       sodipodi:type="star"
       style="fill:#d45500;stroke-width:0.26458332"
       id="path605"
       sodipodi:sides="10"
       sodipodi:cx="27.214285"
       sodipodi:cy="186.63095"
       sodipodi:r1="16.598597"
       sodipodi:r2="28.133213"
       sodipodi:arg1="0.53581124"
       sodipodi:arg2="0.84997051"
       inkscape:flatsided="false"
       inkscape:rounded="-1.0408341e-17"
       inkscape:randomized="0"
       d="m 41.486667,195.10518 4.295688,12.66116 -12.002496,-5.8905 -3.966757,12.76803 -6.247877,-11.8204 -10.714036,7.99796 1.893219,-13.23532 -13.368917,0.17293 9.311169,-9.59479 -10.91732617,-7.71815 13.17256917,-2.28938 -4.2956878,-12.66115 12.0024958,5.89049 3.966757,-12.76803 6.247877,11.8204 10.714036,-7.99796 -1.893219,13.23532 13.368917,-0.17293 -9.311169,9.59479 10.917326,7.71815 z"
       transform="matrix(2.5461437,0,0,2.3081523,6.3037577,-207.47802)" />
    <path
       style="fill:#ffd42a;stroke-width:0.26458332"
       id="path617"
       d="m 67.644612,199.90613 c -0.684146,2.03238 -1.227185,4.10879 -1.775454,6.18109 -0.840605,2.92532 -1.902,5.76119 -3.130429,8.54367 -1.184407,2.60503 -2.504492,5.13369 -4.027585,7.55528 -1.189979,2.01993 -2.287344,4.09011 -3.320044,6.19416 -0.877097,1.53978 -1.431396,3.20798 -1.995147,4.87714 -0.53009,1.41665 -1.007559,2.85012 -1.664631,4.21424 -0.640636,0.97209 -1.068234,2.05684 -1.530776,3.11967 -0.187947,0.0918 -0.425172,1.42193 -0.458084,1.42582 -0.01246,0.002 -0.328739,-0.63366 -0.331811,-0.85836 -0.0016,-0.11962 0.125558,-0.20367 0.188338,-0.3055 -21.379039,12.76985 -2.257438,0.30009 1.608246,-0.9003 0.82553,-0.25635 1.707529,-0.35691 2.559979,-0.47397 1.695903,-0.22461 3.344984,-0.65424 5.057204,-0.79923 1.163957,0.0455 2.392865,-0.30115 3.554079,-0.14349 0.598971,0.0813 1.489821,0.46137 2.033603,0.66903 1.808046,0.90101 3.402909,2.18463 4.90474,3.52268 0,0 -9.456888,5.87005 -9.456888,5.87005 v 0 c -1.401125,-1.2497 -2.881419,-2.45582 -4.653251,-3.13768 -1.763498,-0.46908 -3.539876,-0.32698 -5.341819,-0.11437 -1.680858,0.24214 -3.334038,0.6322 -5.018767,0.85137 -0.836657,0.17645 -1.627891,0.36072 -2.403692,0.73305 -0.209158,0.10039 -0.811506,0.45004 -0.610883,0.33353 9.626605,-5.59071 15.171248,-8.72528 -1.093695,0.55015 -0.581708,-0.0454 -1.232384,-0.42948 -1.257443,-1.11035 -0.0131,-0.35577 0.827958,-0.947 0.543899,-1.37648 0.36467,-1.14791 0.908743,-2.24668 1.449686,-3.31609 0.907868,-1.18184 1.185638,-2.66064 1.803509,-3.99639 0.548875,-1.7178 1.060976,-3.46284 1.978382,-5.02997 1.014121,-2.15359 2.161532,-4.23737 3.314216,-6.31929 1.477446,-2.43954 3.002378,-4.84446 4.172436,-7.4599 1.230702,-2.71873 2.256349,-5.47622 3.101235,-8.3363 0.558429,-2.0616 1.088286,-4.12739 1.638016,-6.19042 0,0 10.162831,-4.77284 10.162831,-4.77284 z"
       inkscape:connector-curvature="0" />
    <path
       style="fill:#ffdd55;stroke-width:0.26458332"
       id="path647"
       d="m 82.164064,251.36015 c -0.866441,-3.41655 -1.546815,-6.8771 -2.315413,-10.31763 -0.955966,-3.84806 -1.573419,-7.73972 -1.857724,-11.69026 -0.180145,-3.17586 -0.23303,-6.35673 -0.189495,-9.5368 0.0399,-2.47866 0.02802,-4.95757 0.0096,-7.43634 0,0 9.159648,-4.66494 9.159648,-4.66494 v 0 c -0.02742,2.47921 -0.05006,4.95863 -0.01622,7.43793 0.04219,3.16102 -0.01712,6.32406 0.143764,9.48263 0.24289,3.90426 0.765947,7.77822 1.704702,11.58183 0.830882,3.36589 1.453544,6.79669 2.54041,10.08818 0,0 -9.179216,5.0554 -9.179216,5.0554 z"
       inkscape:connector-curvature="0" />
    <path
       style="fill:#ffcc00;stroke-width:0.26458332"
       id="path649"
       d="m 78.722873,213.13219 c 1.110368,-1.79097 2.251662,-3.56067 3.623857,-5.16394 1.119084,-1.11656 2.243667,-2.23069 3.581887,-3.08118 5.005536,-3.34493 8.088638,-5.82978 13.378497,-6.176 1.520576,-0.0675 3.043266,-0.0511 4.564866,-0.0451 1.68148,-0.12738 3.02653,0.16348 4.14265,1.47164 0.80483,0.93975 1.3856,2.07987 1.86019,3.21949 0.50016,1.3849 0.5884,2.82726 0.42222,4.27706 -0.26371,1.53088 -1.03317,2.87852 -1.87064,4.16102 -1.02002,1.31233 -2.11413,2.573 -3.25295,3.78399 -1.21428,1.21521 -2.44692,2.40887 -3.74278,3.53661 -1.437097,1.31103 -2.950474,2.52619 -4.512169,3.68367 -1.077878,0.72096 -1.992514,1.65405 -3.087584,2.34626 0,0 -9.744734,3.85633 -9.744734,3.85633 v 0 c 1.001107,-0.82131 -0.132109,0.0497 0.979667,-0.62482 0.786805,-0.47733 1.374164,-1.2587 2.149126,-1.75986 1.623023,-1.05423 3.127282,-2.26648 4.551701,-3.57534 1.28968,-1.12831 2.600754,-2.2275 3.761804,-3.48959 1.234694,-1.07047 2.217152,-2.41091 3.299068,-3.62484 0.946269,-1.07802 1.593791,-2.33826 2.095041,-3.67824 0.21076,-1.28162 0.24698,-2.52819 -0.19074,-3.77889 -0.41078,-1.03482 -0.940199,-2.06389 -1.672137,-2.90554 -0.974159,-0.97757 -2.360967,-0.7505 -3.639735,-0.76109 -1.502336,-8e-4 -3.008374,-0.0126 -4.505775,0.12735 -4.234426,0.53292 -10.466033,4.74863 4.756063,-3.81354 -0.424064,0.25097 -0.873022,0.45975 -1.28828,0.72503 -0.911302,0.58218 -1.518899,1.51404 -2.434278,2.09391 -1.434489,1.4906 -2.693255,3.1537 -3.637661,5.00087 0,0 -9.587174,4.19471 -9.587174,4.19471 z"
       inkscape:connector-curvature="0" />
  </g>
</svg>
